<?xml version="1.0" encoding="utf-8"?>
<!-- Generator: Adobe Illustrator 26.0.1, SVG Export Plug-In . SVG Version: 6.00 Build 0)  -->
<svg version="1.1" id="Layer_1" xmlns="http://www.w3.org/2000/svg" xmlns:xlink="http://www.w3.org/1999/xlink" x="0px" y="0px"
	 viewBox="0 0 151 218" style="enable-background:new 0 0 151 218;" xml:space="preserve">
<style type="text/css">
	.st0{fill:#0460B5;}
	.st1{fill:#FFFFFF;}
	.st2{fill:#18AAD1;}
	.st3{fill:#2AD2FF;}
</style>
<path class="st0" d="M131,189h11.1l-4.2-10.5l4.2-10.5h-15.6l4.5,5V189z"/>
<path class="st0" d="M18.1,189H7l4.2-10.5L7,168h15.6l-4.5,5V189z"/>
<path class="st0" d="M129,174H20v21h109V174z"/>
<path class="st1" d="M34.6,181.5c0.5,0.3,1,0.7,1.3,1.2c0.3,0.5,0.5,1.2,0.5,1.7c0,0.6-0.2,1.2-0.5,1.7c-0.3,0.5-0.7,0.9-1.3,1.2
	c-0.5,0.3-1.2,0.5-1.8,0.5H30V181h2.8C33.5,181.1,34.1,181.2,34.6,181.5z M34,186.5c0.4-0.2,0.6-0.5,0.8-0.8c0.4-0.7,0.4-1.6,0-2.4
	c-0.2-0.4-0.5-0.6-0.8-0.8c-0.4-0.2-0.7-0.3-1.2-0.3h-1.5v4.5h1.5C33.2,186.7,33.6,186.6,34,186.5z"/>
<path class="st1" d="M37.5,181.1h5v1.1h-3.6v1.7h3.3v1.1h-3.3v1.7h3.8v1.1h-5.2V181.1z"/>
<path class="st1" d="M47.2,182.4c-0.3-0.1-0.6-0.2-1-0.2c-0.3,0-0.5,0.1-0.7,0.2c-0.2,0.1-0.3,0.3-0.3,0.5s0.1,0.4,0.2,0.5
	s0.3,0.3,0.5,0.3c0.3,0.1,0.5,0.2,0.8,0.3c0.4,0.1,0.7,0.3,1.1,0.4c0.3,0.2,0.5,0.4,0.7,0.6c0.2,0.3,0.4,0.6,0.3,1.1
	c0,0.4-0.1,0.8-0.4,1.1c-0.3,0.3-0.5,0.5-0.9,0.7c-0.5,0.2-0.9,0.3-1.4,0.3c-0.5,0-1.1-0.1-1.5-0.3c-0.5-0.2-0.9-0.5-1.4-0.8
	l0.5-1.1c0.4,0.3,0.7,0.5,1.2,0.7c0.4,0.2,0.8,0.3,1.2,0.3c0.3,0,0.6-0.1,0.8-0.2c0.4-0.2,0.4-0.6,0.2-1l-0.1-0.1
	c-0.2-0.1-0.3-0.3-0.5-0.3c-0.2-0.1-0.5-0.2-0.8-0.3c-0.4-0.1-0.7-0.3-1.1-0.4c-0.3-0.1-0.5-0.4-0.7-0.5c-0.2-0.3-0.4-0.6-0.3-1
	c0-0.4,0.1-0.7,0.3-1c0.3-0.3,0.5-0.5,0.9-0.7c0.5-0.2,0.9-0.3,1.4-0.3c0.5,0,0.9,0.1,1.3,0.2c0.4,0.1,0.8,0.3,1.2,0.5l-0.5,1.1
	C47.9,182.6,47.5,182.5,47.2,182.4z"/>
<path class="st1" d="M50.1,181.1h1.3v6.8h-1.3V181.1z"/>
<path class="st1" d="M57.6,184.5h1.1v2.6c-0.4,0.3-0.8,0.5-1.3,0.6c-0.5,0.2-0.9,0.3-1.5,0.3c-0.6,0-1.3-0.2-1.8-0.5
	c-0.5-0.3-1-0.7-1.3-1.3c-0.4-0.5-0.5-1.2-0.5-1.8c0-0.6,0.2-1.3,0.5-1.7c0.4-0.5,0.8-1,1.4-1.3c0.5-0.3,1.2-0.5,1.8-0.5
	c0.5,0,1,0.1,1.5,0.3c0.5,0.2,0.9,0.4,1.2,0.7l-0.7,1c-0.3-0.3-0.5-0.5-0.9-0.5c-0.4-0.1-0.6-0.2-1-0.2c-0.5,0-0.8,0.1-1.2,0.3
	c-1.1,0.6-1.5,2.1-0.8,3.2c0.5,0.7,1.2,1.2,2,1.2c0.3,0,0.5,0,0.7-0.1c0.3-0.1,0.5-0.2,0.7-0.4L57.6,184.5z"/>
<path class="st1" d="M65.1,181.1h1.3v6.8h-1.2l-3.5-4.7v4.7h-1.3v-6.8h1.3l3.5,4.7L65.1,181.1z"/>
<path class="st1" d="M72.3,187.9l-1.2-2h-1.8v2H68v-6.8h2.8c0.7-0.1,1.5,0.2,2.1,0.5c0.5,0.5,0.7,1.1,0.7,1.7c0,0.5-0.1,0.9-0.4,1.4
	c-0.3,0.4-0.6,0.6-1,0.8l1.5,2.3L72.3,187.9z M69.3,184.7h1.5c0.5,0,0.8-0.1,1.2-0.4c0.3-0.3,0.4-0.5,0.4-0.9c0-0.4-0.1-0.7-0.4-0.9
	c-0.4-0.2-0.7-0.4-1.1-0.3h-1.6V184.7z"/>
<path class="st1" d="M76.6,186.4c0.4,0.3,0.8,0.5,1.2,0.5c0.5,0,0.9-0.2,1.2-0.5c0.3-0.4,0.5-0.8,0.5-1.3v-4h1.3v4
	c0,0.5-0.1,1.1-0.4,1.5c-0.3,0.5-0.6,0.8-1,1c-0.5,0.3-1,0.4-1.5,0.4c-0.5,0-1.1-0.1-1.6-0.4c-0.5-0.2-0.8-0.5-1-1
	c-0.3-0.5-0.4-1-0.4-1.5v-4h1.3v4C76.2,185.5,76.4,186,76.6,186.4z"/>
<path class="st1" d="M85.6,182.4c-0.3-0.1-0.6-0.2-1-0.2c-0.3,0-0.5,0.1-0.7,0.2c-0.2,0.1-0.3,0.3-0.3,0.5s0.1,0.4,0.2,0.5
	c0.1,0.1,0.3,0.3,0.5,0.3c0.3,0.1,0.5,0.2,0.8,0.3c0.4,0.1,0.7,0.3,1.1,0.4c0.3,0.2,0.5,0.4,0.7,0.6s0.4,0.6,0.3,1.1
	c0,0.4-0.1,0.8-0.4,1.1c-0.3,0.3-0.5,0.5-0.9,0.7c-0.5,0.2-0.9,0.3-1.4,0.3c-0.5,0-1.1-0.1-1.5-0.3c-0.5-0.2-0.9-0.5-1.4-0.8
	l0.5-1.1c0.4,0.3,0.7,0.5,1.2,0.7c0.4,0.2,0.8,0.3,1.2,0.3c0.3,0,0.6-0.1,0.8-0.2c0.4-0.2,0.4-0.6,0.2-1l-0.1-0.1
	c-0.2-0.1-0.3-0.3-0.5-0.3c-0.2-0.1-0.5-0.2-0.8-0.3c-0.4-0.1-0.7-0.3-1.1-0.4c-0.3-0.1-0.5-0.4-0.7-0.5c-0.2-0.3-0.4-0.6-0.3-1
	c0-0.4,0.1-0.7,0.3-1c0.3-0.3,0.5-0.5,0.9-0.7c0.5-0.2,0.9-0.3,1.4-0.3c0.5,0,0.9,0.1,1.3,0.2c0.4,0.1,0.8,0.3,1.2,0.5l-0.5,1.1
	C86.4,182.6,86,182.5,85.6,182.4z"/>
<path class="st1" d="M88.5,181.1h1.3v2.9h3.4v-2.9h1.3v6.8h-1.3v-2.7h-3.4v2.7h-1.3V181.1z"/>
<path class="st1" d="M96.9,186.7c0.1,0.1,0.2,0.3,0.2,0.5c0,0.2-0.1,0.4-0.2,0.5c-0.1,0.1-0.3,0.2-0.5,0.2s-0.4-0.1-0.5-0.2
	c-0.1-0.2-0.2-0.4-0.2-0.5c0-0.2,0.1-0.4,0.2-0.5c0.1-0.1,0.3-0.2,0.5-0.2S96.8,186.6,96.9,186.7z"/>
<path class="st1" d="M100.5,183.7c-0.4,0-0.7,0.2-1,0.5c-0.3,0.3-0.4,0.7-0.4,1.1c0,0.5,0.1,0.8,0.4,1.1c0.3,0.3,0.6,0.5,1,0.5
	c0.5,0,1.1-0.2,1.4-0.6l0.8,0.6c-0.3,0.4-0.5,0.6-0.9,0.8c-0.5,0.2-0.9,0.3-1.4,0.3c-0.5,0-0.9-0.1-1.4-0.4
	c-0.4-0.2-0.7-0.5-0.9-0.9c-0.5-0.8-0.5-1.9,0-2.7c0.2-0.4,0.5-0.7,0.9-0.9c0.5-0.2,0.9-0.4,1.4-0.4c0.5,0,0.9,0.1,1.3,0.3
	c0.4,0.2,0.6,0.4,0.9,0.7l-0.7,0.7C101.6,184,101.1,183.7,100.5,183.7z"/>
<path class="st1" d="M107.4,183c0.4,0.2,0.7,0.5,1,0.9c0.3,0.5,0.4,0.9,0.4,1.4c0,0.5-0.1,1-0.4,1.4c-0.3,0.4-0.5,0.7-1,0.9
	c-0.5,0.2-0.9,0.4-1.5,0.4c-0.5,0-1-0.1-1.5-0.4c-0.4-0.2-0.7-0.5-1-0.9c-0.3-0.5-0.4-0.9-0.4-1.4c0-0.5,0.1-1,0.4-1.4
	c0.3-0.4,0.5-0.7,1-0.9c0.5-0.3,0.9-0.4,1.5-0.4C106.5,182.6,106.9,182.7,107.4,183z M104.9,184.2c-0.5,0.6-0.5,1.6,0,2.3
	c0.3,0.3,0.6,0.5,1.1,0.5c0.4,0,0.8-0.2,1.1-0.5c0.5-0.6,0.5-1.6,0-2.3c-0.3-0.3-0.6-0.5-1.1-0.5
	C105.5,183.7,105.2,183.8,104.9,184.2z"/>
<path class="st1" d="M118,183.2c0.4,0.4,0.5,0.9,0.5,1.5v3.3h-1.3V185c0-0.4-0.1-0.6-0.3-0.9c-0.2-0.2-0.5-0.4-0.8-0.4
	c-0.4,0-0.7,0.2-1,0.5c-0.3,0.3-0.4,0.6-0.4,1.1v2.5h-1.3V185c0-0.4-0.1-0.6-0.3-0.9c-0.2-0.2-0.5-0.4-0.8-0.4c-0.4,0-0.7,0.2-1,0.5
	c-0.3,0.3-0.4,0.7-0.3,1.1v2.5h-1.3v-5.2h1.3v1c0.6-1,2-1.3,3-0.7c0.3,0.2,0.5,0.5,0.6,0.9c0.3-0.8,1.1-1.3,1.9-1.3
	C117.2,182.5,117.6,182.8,118,183.2z"/>
<path class="st1" d="M65.1,130v-9h3.2v-1.6H60v1.6h3.2v9H65.1z M74.5,130.2c3.2,0,5.5-2.3,5.5-5.5c0-3.2-2.3-5.5-5.5-5.5
	c-3.2,0-5.5,2.3-5.5,5.5C69.1,127.9,71.3,130.2,74.5,130.2z M74.5,128.5c-2.2,0-3.5-1.7-3.5-3.9c0-2.2,1.4-3.9,3.5-3.9
	c2.1,0,3.5,1.6,3.5,3.9C78.1,126.9,76.7,128.5,74.5,128.5z M83.7,130v-4h2.8c2.2,0,3.5-1.5,3.5-3.3c0-1.8-1.2-3.3-3.5-3.3h-4.7V130
	H83.7z M86.2,124.4h-2.6V121h2.6c1.1,0,1.8,0.7,1.8,1.7C88,123.7,87.3,124.4,86.2,124.4z M4.1,148c3.3,0,5.6-2.2,5.6-5.3
	c0-3.1-2.2-5.3-5.6-5.3h-4V148H4.1z M4.1,146.4H2V139h2.1c2.4,0,3.6,1.6,3.6,3.7C7.8,144.7,6.4,146.4,4.1,146.4z M13.4,148v-10.7
	h-1.9V148H13.4z M20.8,148.2c1.8,0,3.3-0.8,4.4-2v-4h-5.1v1.6h3.2v1.6c-0.5,0.5-1.4,1-2.5,1c-2.1,0-3.7-1.6-3.7-3.9
	c0-2.3,1.6-3.9,3.7-3.9c1.2,0,2.2,0.6,2.8,1.4l1.5-0.9c-0.8-1.2-2.2-2.2-4.3-2.2c-3.1,0-5.6,2.2-5.6,5.5
	C15.2,146,17.7,148.2,20.8,148.2z M29,148v-10.7h-1.9V148H29z M35.7,148v-9h3.2v-1.6h-8.3v1.6h3.2v9H35.7z M49,148l-4.2-10.7h-2.3
	L38.3,148h2.1l0.8-2.1h4.9l0.8,2.1H49z M45.6,144.3h-3.8l1.9-5.1L45.6,144.3z M56.6,148v-1.6h-4.7v-9h-1.9V148H56.6z M73.5,148
	v-10.7h-2.6l-2.9,7.3l-2.9-7.3h-2.6V148h1.9v-8.2l3.3,8.2h0.8l3.3-8.2v8.2H73.5z M85.4,148l-4.2-10.7h-2.3L74.7,148h2.1l0.8-2.1h4.9
	l0.8,2.1H85.4z M82,144.3h-3.8l1.9-5.1L82,144.3z M94.8,148l-2.6-4.2c1.3-0.2,2.5-1.2,2.5-3.1c0-2-1.4-3.3-3.5-3.3h-4.7V148h1.9v-4
	h1.9l2.4,4H94.8z M91,142.4h-2.6V139H91c1.1,0,1.8,0.7,1.8,1.7C92.8,141.7,92,142.4,91,142.4z M105.3,148l-4.7-5.6l4.3-5h-2.3
	l-4.2,5.1v-5.1h-1.9V148h1.9v-3.4l0.9-1.1l3.6,4.5H105.3z M113.9,148v-1.6h-5.4v-3h5.3v-1.6h-5.3V139h5.4v-1.6h-7.3V148H113.9z
	 M120.2,148v-9h3.2v-1.6h-8.3v1.6h3.2v9H120.2z M126.9,148v-10.7H125V148H126.9z M138.4,148v-10.7h-1.9v7.4l-5.5-7.4h-1.9V148h1.9
	v-7.6l5.6,7.6H138.4z M145.8,148.2c1.8,0,3.3-0.8,4.4-2v-4h-5.1v1.6h3.2v1.6c-0.5,0.5-1.4,1-2.5,1c-2.1,0-3.7-1.6-3.7-3.9
	c0-2.3,1.6-3.9,3.7-3.9c1.2,0,2.2,0.6,2.8,1.4l1.5-0.9c-0.8-1.2-2.2-2.2-4.3-2.2c-3.1,0-5.6,2.2-5.6,5.5
	C140.2,146,142.7,148.2,145.8,148.2z M47.7,166l-4.2-10.7h-2.3L36.9,166h2.1l0.8-2.1h4.9l0.8,2.1H47.7z M44.2,162.3h-3.8l1.9-5.1
	L44.2,162.3z M53.4,166.2c1.8,0,3.3-0.8,4.4-2v-4h-5.1v1.6h3.2v1.6c-0.5,0.5-1.4,1-2.5,1c-2.1,0-3.7-1.6-3.7-3.9
	c0-2.3,1.6-3.9,3.7-3.9c1.2,0,2.2,0.6,2.8,1.4l1.5-0.9c-0.8-1.2-2.2-2.2-4.3-2.2c-3.1,0-5.6,2.2-5.6,5.5
	C47.8,164,50.3,166.2,53.4,166.2z M67,166v-1.6h-5.4v-3h5.3v-1.6h-5.3V157H67v-1.6h-7.3V166H67z M78.2,166v-10.7h-1.9v7.4l-5.5-7.4
	h-1.9V166h1.9v-7.6l5.6,7.6H78.2z M85.6,166.2c2.1,0,3.5-1.1,4.3-2.4l-1.6-0.8c-0.5,0.9-1.6,1.6-2.7,1.6c-2.1,0-3.7-1.6-3.7-3.9
	c0-2.3,1.6-3.9,3.7-3.9c1.1,0,2.2,0.7,2.7,1.6l1.6-0.8c-0.8-1.3-2.1-2.4-4.3-2.4c-3.2,0-5.6,2.2-5.6,5.5
	C80,164,82.4,166.2,85.6,166.2z M93.2,166v-10.7h-1.9V166H93.2z M102.8,166v-1.6h-5.4v-3h5.3v-1.6h-5.3V157h5.4v-1.6h-7.3V166H102.8
	z M108.4,166.2c2.9,0,4.1-1.5,4.1-3.3c0-4-6.2-2.7-6.2-4.7c0-0.8,0.7-1.3,1.8-1.3c1.1,0,2.3,0.4,3.1,1.2l1.1-1.4c-1-1-2.3-1.5-4-1.5
	c-2.4,0-3.9,1.4-3.9,3.1c0,3.9,6.2,2.5,6.2,4.8c0,0.7-0.6,1.5-2.1,1.5c-1.5,0-2.7-0.7-3.4-1.5l-1.1,1.5
	C105,165.5,106.4,166.2,108.4,166.2z"/>
<path class="st2" d="M74.8,68.7C74.6,68.7,74.6,68.5,74.8,68.7l-0.9-0.6l-0.2-0.2L51.5,51c0,0-0.2,0-0.2-0.2l-0.4-0.4l-0.2-0.2h-0.4
	L44,45.4l12.6,2c0.6,0,0.8,0.2,1.3,0.4c0.2,0,0.6,0.2,0.6,0.2c0.6,0.2,0.8,0.4,1.1,0.6c0.4,0.2,0.6,0.4,0.9,0.6
	c0.2,0.2,0.6,0.4,0.6,0.6c0.2,0.2,0.4,0.2,0.6,0.4c0.4,0.2,0.6,0.4,0.6,0.6c0.6,0.6,0.9,1.2,1.5,1.6l9.9,15.1l0.2,0.2L74.8,68.7z"/>
<path class="st3" d="M74.8,92l-0.9-1.6l-0.2-0.2L44.2,45.4l6.4,4.8l1.1,0.8l22.1,16.9H74l0.8,0.6c0,0,0.2,0,0.2,0.2l0.9-0.8
	l29.8-22.5l-30,45l-0.2,0.2L74.8,92z"/>
<path class="st2" d="M74.8,61l-0.9-1.6l-0.2-0.2l-7.3-10.8l7.3,1.6h0.2l0.9,0.2l0.9-0.2l7.1-1.8l-7.1,11.2v0.2L74.8,61z"/>
<path class="st2" d="M105.9,45.2l-9.4,1.4L93,47.2c-2.8,0.4-5.4,2-7.1,4.6l-9.9,15.3l-0.2,0.2l-0.9,1.4l1.1-1.2l0.2-0.2l-1.3,1.4
	l25.3-19.3L105.9,45.2z"/>
<path class="st3" d="M79.5,13.5c0,8.8-14.3,13.5-14.3,22.9c-0.2,2.2,0.4,4.4,1.3,6.4c0,0-5.4-5.6-5.4-11.6s5.3-15.1,5.3-15.1
	c0,4,1.5,5.2,3,5.4h0.2c1.7,0,2.6-1.4,2.6-3.4c0-2-2.1-4-2.1-8c0-3.8,4.5-10,4.5-10C77.8,4,79.5,8.6,79.5,13.5z"/>
<path class="st3" d="M75.5,45.6c-4.5,0-7.9-3.8-7.9-8.4v-0.2C67.6,26.7,81,25.7,81,11.8c0.4,0.6,3.9,5.8,3.9,11.4
	c0,7-6.2,8.8-6.2,12.2c0,1.4,0.6,2.4,2.4,2.4c0.2,0,0.4,0,0.6-0.2c3.6-1.6,6-5.2,6.2-9.4C87.9,28.5,89.8,45.6,75.5,45.6z"/>
<path class="st2" d="M81.3,37.9c0.2,0,0.4,0,0.6-0.2c-1.9,0.6-8.8,2.4-8.8-2.8c0-6.4,10.3-7.8,10.3-13.3c0-3.4-0.8-6.8-2.4-9.8
	c0.4,0.6,3.9,5.8,3.9,11.4c0,7-6.2,8.8-6.2,12.2C78.9,36.9,79.6,37.9,81.3,37.9z"/>
<path class="st2" d="M75.4,17.1c0,5-6,4.6-6.4,4.4h0.6c1.7,0,2.6-1.4,2.6-3.4s-2.1-4-2.1-8c0-3.8,4.5-10,4.5-10
	c-1.5,2.6-2.3,5.4-2.4,8.2C72.2,12.8,75.4,13.3,75.4,17.1z"/>
<path class="st3" d="M72.2,105l-4.3-3.1h5.3l1.8-5.6l1.6,5.6h5.3l-4.3,3.1l1.6,5.4l-4.3-3.3l-4.5,3.3L72.2,105z"/>
<path class="st3" d="M95.3,105l-4.3-3.1h5.3l1.8-5.6l1.6,5.6h5.3l-4.3,3.1l1.6,5.4l-4.3-3.3l-4.5,3.3L95.3,105z"/>
<path class="st3" d="M118.3,105l-4.3-3.1h5.3l1.8-5.6l1.6,5.6h5.3l-4.3,3.1l1.6,5.4l-4.3-3.3l-4.5,3.3L118.3,105z"/>
<path class="st3" d="M48.3,105l-4.3-3.1h5.3l1.8-5.6l1.6,5.6H58l-4.3,3.1l1.6,5.4l-4.3-3.3l-4.3,3.3L48.3,105z"/>
<path class="st3" d="M25.3,105l-4.3-3.1h5.3l1.8-5.6l1.6,5.6H35l-4.3,3.1l1.6,5.4l-4.3-3.3l-4.3,3.3L25.3,105z"/>
</svg>
